<svg width="24" height="24" viewBox="0 0 24 24" fill="none" xmlns="http://www.w3.org/2000/svg">
<path d="M18.83 17.3635C18.633 17.3635 18.432 17.3305 18.235 17.2595L4.138 12.1285C2.714 11.6085 1.977 10.0285 2.494 8.60455L3.862 4.84455C4.193 3.94055 5.197 3.46855 6.105 3.79855L7.405 4.27155C8.031 4.50055 8.467 5.05355 8.545 5.71455L8.659 6.70955C8.67 6.80455 8.732 6.88355 8.822 6.91555L10.071 7.37055L10.621 4.41755C10.715 3.91255 11.024 3.47555 11.472 3.21955C11.92 2.96255 12.455 2.91855 12.94 3.09355L14.119 3.52255C14.692 3.73155 15.121 4.23355 15.238 4.83355L16.158 9.58655L18.189 10.3255C19.234 10.7055 20.068 11.4705 20.539 12.4785C21.009 13.4865 21.059 14.6175 20.679 15.6625L20.479 16.2135C20.22 16.9235 19.546 17.3645 18.831 17.3645L18.83 17.3635ZM5.51 5.19255C5.407 5.19255 5.31 5.25555 5.273 5.35855L3.906 9.11655C3.671 9.76355 4.006 10.4825 4.653 10.7185L18.749 15.8495C18.876 15.8985 19.022 15.8285 19.069 15.6995L19.269 15.1495C19.512 14.4805 19.481 13.7575 19.18 13.1135C18.879 12.4675 18.345 11.9785 17.677 11.7355L15.246 10.8505C14.999 10.7595 14.816 10.5465 14.767 10.2885L13.766 5.11955C13.749 5.03355 13.689 4.96355 13.606 4.93255L12.428 4.50355C12.335 4.46855 12.256 4.49955 12.218 4.52155C12.181 4.54255 12.115 4.59355 12.097 4.69255L11.385 8.51655C11.345 8.73355 11.211 8.92055 11.02 9.03055C10.828 9.14055 10.598 9.16055 10.391 9.08455L8.31 8.32655C7.683 8.09755 7.247 7.54455 7.17 6.88155L7.056 5.88855C7.045 5.79455 6.983 5.71455 6.892 5.68155L5.594 5.20955C5.567 5.19855 5.537 5.19355 5.51 5.19355V5.19255ZM21.75 19.9985C21.75 19.5845 21.414 19.2485 21 19.2485H3C2.586 19.2485 2.25 19.5845 2.25 19.9985C2.25 20.4125 2.586 20.7485 3 20.7485H21C21.414 20.7485 21.75 20.4125 21.75 19.9985Z" fill="#BA5E8F"/>
</svg>
