<svg width="16" height="16" viewBox="0 0 16 16" fill="none" xmlns="http://www.w3.org/2000/svg">
<g clip-path="url(#clip0_8925_9968)">
<path d="M4.66667 8.33333C5.06223 8.33333 5.44891 8.21604 5.77781 7.99627C6.10671 7.77651 6.36306 7.46415 6.51443 7.0987C6.66581 6.73325 6.70541 6.33111 6.62824 5.94315C6.55107 5.55519 6.36059 5.19882 6.08089 4.91912C5.80118 4.63941 5.44481 4.44893 5.05685 4.37176C4.66889 4.29459 4.26676 4.3342 3.9013 4.48557C3.53585 4.63695 3.2235 4.89329 3.00373 5.22219C2.78397 5.55109 2.66667 5.93777 2.66667 6.33333C2.66667 6.86377 2.87739 7.37247 3.25246 7.74755C3.62753 8.12262 4.13624 8.33333 4.66667 8.33333ZM4.66667 5.66667C4.79853 5.66667 4.92742 5.70577 5.03705 5.77902C5.14668 5.85227 5.23213 5.95639 5.28259 6.07821C5.33305 6.20003 5.34625 6.33407 5.32053 6.46339C5.29481 6.59271 5.23131 6.7115 5.13808 6.80474C5.04484 6.89797 4.92605 6.96147 4.79673 6.98719C4.66741 7.01291 4.53337 6.99971 4.41155 6.94925C4.28973 6.89879 4.18561 6.81335 4.11236 6.70371C4.0391 6.59408 4.00001 6.46519 4.00001 6.33333C4.00001 6.15652 4.07024 5.98695 4.19527 5.86193C4.32029 5.7369 4.48986 5.66667 4.66667 5.66667ZM13.3333 4.33333H8.00001C7.82319 4.33333 7.65363 4.40357 7.5286 4.5286C7.40358 4.65362 7.33334 4.82319 7.33334 5V9H2.00001V3.66667C2.00001 3.48986 1.92977 3.32029 1.80474 3.19526C1.67972 3.07024 1.51015 3 1.33334 3C1.15653 3 0.986958 3.07024 0.861934 3.19526C0.73691 3.32029 0.666672 3.48986 0.666672 3.66667V12.3333C0.666672 12.5101 0.73691 12.6797 0.861934 12.8047C0.986958 12.9298 1.15653 13 1.33334 13C1.51015 13 1.67972 12.9298 1.80474 12.8047C1.92977 12.6797 2.00001 12.5101 2.00001 12.3333V10.3333H14V12.3333C14 12.5101 14.0702 12.6797 14.1953 12.8047C14.3203 12.9298 14.4899 13 14.6667 13C14.8435 13 15.0131 12.9298 15.1381 12.8047C15.2631 12.6797 15.3333 12.5101 15.3333 12.3333V6.33333C15.3333 5.8029 15.1226 5.29419 14.7476 4.91912C14.3725 4.54405 13.8638 4.33333 13.3333 4.33333ZM14 9H8.66667V5.66667H13.3333C13.5101 5.66667 13.6797 5.7369 13.8047 5.86193C13.9298 5.98695 14 6.15652 14 6.33333V9Z" fill="#696969" stroke="white" stroke-width="0.6"/>
</g>
<defs>
<clipPath id="clip0_8925_9968">
<rect width="16" height="16" fill="white"/>
</clipPath>
</defs>
</svg>
