<svg width="20" height="20" viewBox="0 0 20 20" fill="none" xmlns="http://www.w3.org/2000/svg">
<path d="M8.7497 9.52441C8.7497 8.89995 9.25614 8.3928 9.88055 8.39258C10.5052 8.39258 11.0124 8.89981 11.0124 9.52441C11.0122 10.1488 10.505 10.6553 9.88056 10.6553C9.25628 10.655 8.74992 10.1487 8.7497 9.52441Z" fill="#696969" stroke="#696969" stroke-width="0.833333" stroke-linecap="round" stroke-linejoin="round"/>
<path d="M8.7497 15.1182C8.7497 14.4937 9.25614 13.9866 9.88055 13.9863C10.5052 13.9863 11.0124 14.4936 11.0124 15.1182C11.0122 15.7426 10.505 16.249 9.88056 16.249C9.25628 16.2488 8.74992 15.7424 8.7497 15.1182Z" fill="#696969" stroke="#696969" stroke-width="0.833333" stroke-linecap="round" stroke-linejoin="round"/>
<path d="M8.7497 3.92676C8.7497 3.30229 9.25614 2.79515 9.88055 2.79492C10.5052 2.79492 11.0124 3.30215 11.0124 3.92676C11.0122 4.55117 10.505 5.05762 9.88056 5.05762C9.25628 5.05739 8.74992 4.55103 8.7497 3.92676Z" fill="#696969" stroke="#696969" stroke-width="0.833333" stroke-linecap="round" stroke-linejoin="round"/>
</svg>
