<svg width="34" height="34" viewBox="0 0 34 34" fill="none" xmlns="http://www.w3.org/2000/svg">
<rect x="0.5" y="0.5" width="33" height="33" rx="16.5" fill="#EAEAEE" stroke="#696969"/>
<path d="M22.25 14.1875H19.25C18.911 14.1875 18.5953 14.2775 18.3125 14.4237V11.75C18.3125 10.6123 17.3878 9.6875 16.25 9.6875H11.75C10.6123 9.6875 9.6875 10.6123 9.6875 11.75V23C9.6875 23.7238 10.2763 24.3125 11 24.3125H23C23.7238 24.3125 24.3125 23.7238 24.3125 23V16.25C24.3125 15.1122 23.3877 14.1875 22.25 14.1875ZM13.0625 23.1875V20C13.0625 19.8965 13.1465 19.8125 13.25 19.8125H14.75C14.8535 19.8125 14.9375 19.8965 14.9375 20V23.1875H13.0625ZM17.1875 23.1875H16.0625V20C16.0625 19.2762 15.4738 18.6875 14.75 18.6875H13.25C12.5263 18.6875 11.9375 19.2762 11.9375 20V23.1875H11C10.8965 23.1875 10.8125 23.1035 10.8125 23V11.75C10.8125 11.2333 11.2333 10.8125 11.75 10.8125H16.25C16.7667 10.8125 17.1875 11.2333 17.1875 11.75V23.1875ZM23.1875 23C23.1875 23.1035 23.1035 23.1875 23 23.1875H18.3125V16.25C18.3125 15.7333 18.7332 15.3125 19.25 15.3125H22.25C22.7668 15.3125 23.1875 15.7333 23.1875 16.25V23ZM15.3125 16.25C15.3125 16.5605 15.0605 16.8125 14.75 16.8125H13.25C12.9395 16.8125 12.6875 16.5605 12.6875 16.25C12.6875 15.9395 12.9395 15.6875 13.25 15.6875H14.75C15.0605 15.6875 15.3125 15.9395 15.3125 16.25ZM22.0625 20.75C22.0625 21.0605 21.8105 21.3125 21.5 21.3125H20C19.6895 21.3125 19.4375 21.0605 19.4375 20.75C19.4375 20.4395 19.6895 20.1875 20 20.1875H21.5C21.8105 20.1875 22.0625 20.4395 22.0625 20.75ZM22.0625 17.75C22.0625 18.0605 21.8105 18.3125 21.5 18.3125H20C19.6895 18.3125 19.4375 18.0605 19.4375 17.75C19.4375 17.4395 19.6895 17.1875 20 17.1875H21.5C21.8105 17.1875 22.0625 17.4395 22.0625 17.75ZM15.3125 13.25C15.3125 13.5605 15.0605 13.8125 14.75 13.8125H13.25C12.9395 13.8125 12.6875 13.5605 12.6875 13.25C12.6875 12.9395 12.9395 12.6875 13.25 12.6875H14.75C15.0605 12.6875 15.3125 12.9395 15.3125 13.25Z" fill="black"/>
</svg>
