<svg width="23" height="23" viewBox="0 0 23 23" fill="none" xmlns="http://www.w3.org/2000/svg">
<g clip-path="url(#clip0_8925_7456)">
<path d="M2.46415 4.10547C2.02843 4.10547 1.61057 4.27855 1.30247 4.58665C0.994375 4.89475 0.821289 5.31261 0.821289 5.74833V20.534C0.821289 20.9698 0.994375 21.3876 1.30247 21.6957C1.61057 22.0038 2.02843 22.1769 2.46415 22.1769H20.5356C20.9713 22.1769 21.3892 22.0038 21.6973 21.6957C22.0053 21.3876 22.1784 20.9698 22.1784 20.534V5.74833C22.1784 5.31261 22.0053 4.89475 21.6973 4.58665C21.3892 4.27855 20.9713 4.10547 20.5356 4.10547H17.2499" stroke="#000001" stroke-linecap="round" stroke-linejoin="round"/>
<path d="M5.75 0.820312V7.39174" stroke="#000001" stroke-linecap="round" stroke-linejoin="round"/>
<path d="M17.25 0.820312V7.39174" stroke="#000001" stroke-linecap="round" stroke-linejoin="round"/>
<path d="M5.75 4.10547H13.9643" stroke="#000001" stroke-linecap="round" stroke-linejoin="round"/>
<path d="M5.74965 13.1429C6.20331 13.1429 6.57108 12.7751 6.57108 12.3214C6.57108 11.8678 6.20331 11.5 5.74965 11.5C5.29599 11.5 4.92822 11.8678 4.92822 12.3214C4.92822 12.7751 5.29599 13.1429 5.74965 13.1429Z" stroke="#000001" stroke-linecap="round" stroke-linejoin="round"/>
<path d="M11.4997 13.1429C11.9533 13.1429 12.3211 12.7751 12.3211 12.3214C12.3211 11.8678 11.9533 11.5 11.4997 11.5C11.046 11.5 10.6782 11.8678 10.6782 12.3214C10.6782 12.7751 11.046 13.1429 11.4997 13.1429Z" stroke="#000001" stroke-linecap="round" stroke-linejoin="round"/>
<path d="M17.2497 13.1429C17.7033 13.1429 18.0711 12.7751 18.0711 12.3214C18.0711 11.8678 17.7033 11.5 17.2497 11.5C16.796 11.5 16.4282 11.8678 16.4282 12.3214C16.4282 12.7751 16.796 13.1429 17.2497 13.1429Z" stroke="#000001" stroke-linecap="round" stroke-linejoin="round"/>
<path d="M5.74965 18.0686C6.20331 18.0686 6.57108 17.7009 6.57108 17.2472C6.57108 16.7935 6.20331 16.4258 5.74965 16.4258C5.29599 16.4258 4.92822 16.7935 4.92822 17.2472C4.92822 17.7009 5.29599 18.0686 5.74965 18.0686Z" stroke="#000001" stroke-linecap="round" stroke-linejoin="round"/>
</g>
<defs>
<clipPath id="clip0_8925_7456">
<rect width="23" height="23" fill="white"/>
</clipPath>
</defs>
</svg>
