<svg width="18" height="18" viewBox="0 0 18 18" fill="none" xmlns="http://www.w3.org/2000/svg">
<g clip-path="url(#clip0_206_82)">
<path d="M1.92857 3.21429C1.58757 3.21429 1.26055 3.34975 1.01943 3.59086C0.778312 3.83198 0.642853 4.15901 0.642853 4.5V16.0714C0.642853 16.4124 0.778312 16.7394 1.01943 16.9806C1.26055 17.2217 1.58757 17.3571 1.92857 17.3571H16.0714C16.4124 17.3571 16.7394 17.2217 16.9806 16.9806C17.2217 16.7394 17.3571 16.4124 17.3571 16.0714V4.5C17.3571 4.15901 17.2217 3.83198 16.9806 3.59086C16.7394 3.34975 16.4124 3.21429 16.0714 3.21429H13.5" stroke="black" stroke-width="1.5" stroke-linecap="round" stroke-linejoin="round"/>
<path d="M0.642853 8.35715H17.3571" stroke="black" stroke-width="1.5" stroke-linecap="round" stroke-linejoin="round"/>
<path d="M4.5 0.64286V5.78572" stroke="black" stroke-width="1.5" stroke-linecap="round" stroke-linejoin="round"/>
<path d="M13.5 0.64286V5.78572" stroke="black" stroke-width="1.5" stroke-linecap="round" stroke-linejoin="round"/>
<path d="M4.5 3.21429H10.9286" stroke="black" stroke-width="1.5" stroke-linecap="round" stroke-linejoin="round"/>
</g>
<defs>
<clipPath id="clip0_206_82">
<rect width="18" height="18" fill="white"/>
</clipPath>
</defs>
</svg>
