<svg width="40" height="40" viewBox="0 0 40 40" fill="none" xmlns="http://www.w3.org/2000/svg">
<g filter="url(#filter0_d_8925_9574)">
<circle cx="20" cy="19" r="16" fill="white"/>
</g>
<path d="M14.9229 14.8438C14.6781 14.8438 14.4433 14.941 14.2702 15.1141C14.0971 15.2872 13.9998 15.522 13.9998 15.7669V24.0749C13.9998 24.3198 14.0971 24.5545 14.2702 24.7277C14.4433 24.9008 14.6781 24.998 14.9229 24.998H25.0772C25.3221 24.998 25.5569 24.9008 25.73 24.7277C25.9031 24.5545 26.0003 24.3198 26.0003 24.0749V15.7669C26.0003 15.522 25.9031 15.2872 25.73 15.1141C25.5569 14.941 25.3221 14.8438 25.0772 14.8438H23.231" stroke="#CD484B" stroke-width="0.833333" stroke-linecap="round" stroke-linejoin="round"/>
<path d="M16.7691 13V16.6925" stroke="#CD484B" stroke-width="0.833333" stroke-linecap="round" stroke-linejoin="round"/>
<path d="M23.231 13V16.6925" stroke="#CD484B" stroke-width="0.833333" stroke-linecap="round" stroke-linejoin="round"/>
<path d="M16.7691 14.8438H21.3847" stroke="#CD484B" stroke-width="0.833333" stroke-linecap="round" stroke-linejoin="round"/>
<path d="M16.7691 19.9231C17.024 19.9231 17.2306 19.7165 17.2306 19.4616C17.2306 19.2066 17.024 19 16.7691 19C16.5141 19 16.3075 19.2066 16.3075 19.4616C16.3075 19.7165 16.5141 19.9231 16.7691 19.9231Z" stroke="#CD484B" stroke-width="0.833333" stroke-linecap="round" stroke-linejoin="round"/>
<path d="M20 19.9231C20.2549 19.9231 20.4616 19.7165 20.4616 19.4616C20.4616 19.2066 20.2549 19 20 19C19.7451 19 19.5385 19.2066 19.5385 19.4616C19.5385 19.7165 19.7451 19.9231 20 19.9231Z" stroke="#CD484B" stroke-width="0.833333" stroke-linecap="round" stroke-linejoin="round"/>
<path d="M23.2309 19.9231C23.4858 19.9231 23.6925 19.7165 23.6925 19.4616C23.6925 19.2066 23.4858 19 23.2309 19C22.976 19 22.7693 19.2066 22.7693 19.4616C22.7693 19.7165 22.976 19.9231 23.2309 19.9231Z" stroke="#CD484B" stroke-width="0.833333" stroke-linecap="round" stroke-linejoin="round"/>
<path d="M16.7691 22.6926C17.024 22.6926 17.2306 22.486 17.2306 22.2311C17.2306 21.9762 17.024 21.7695 16.7691 21.7695C16.5141 21.7695 16.3075 21.9762 16.3075 22.2311C16.3075 22.486 16.5141 22.6926 16.7691 22.6926Z" stroke="#CD484B" stroke-width="0.833333" stroke-linecap="round" stroke-linejoin="round"/>
<defs>
<filter id="filter0_d_8925_9574" x="0" y="0" width="40" height="40" filterUnits="userSpaceOnUse" color-interpolation-filters="sRGB">
<feFlood flood-opacity="0" result="BackgroundImageFix"/>
<feColorMatrix in="SourceAlpha" type="matrix" values="0 0 0 0 0 0 0 0 0 0 0 0 0 0 0 0 0 0 127 0" result="hardAlpha"/>
<feOffset dy="1"/>
<feGaussianBlur stdDeviation="2"/>
<feComposite in2="hardAlpha" operator="out"/>
<feColorMatrix type="matrix" values="0 0 0 0 0 0 0 0 0 0 0 0 0 0 0 0 0 0 0.15 0"/>
<feBlend mode="normal" in2="BackgroundImageFix" result="effect1_dropShadow_8925_9574"/>
<feBlend mode="normal" in="SourceGraphic" in2="effect1_dropShadow_8925_9574" result="shape"/>
</filter>
</defs>
</svg>
