<svg width="24" height="24" viewBox="0 0 24 24" fill="none" xmlns="http://www.w3.org/2000/svg">
<path d="M2.82812 15.7414C2.82812 17.5411 4.28707 19 6.08675 19H11.2764C11.543 19 11.7546 18.7819 11.8025 18.5197C12.0285 17.2825 13.1119 16.3448 14.4143 16.3448C15.6914 16.3448 16.7579 17.2465 17.012 18.4479C17.0709 18.7264 17.3154 18.9514 17.5933 18.8892C19.642 18.4304 21.173 16.6009 21.173 14.4138V8.25862C21.173 6.45894 19.714 5 17.9143 5H17.5523C17.2856 5 17.0741 5.21806 17.0262 5.48032C16.8001 6.71746 15.7167 7.65517 14.4143 7.65517C13.1119 7.65517 12.0285 6.71746 11.8025 5.48032C11.7546 5.21806 11.543 5 11.2764 5H8.50054H6.08675C4.28707 5 2.82812 6.45894 2.82812 8.25862V13.4483M14.2936 7.65517V9.49569M14.2936 16.2241V14.625M14.2936 12.4978V12.0603V11.6228" stroke="#6A57A2" stroke-linecap="round"/>
<path d="M2.82812 13.6914H4.94019M7.08244 13.6914H8.86261V10.1914" stroke="#6A57A2" stroke-linecap="round" stroke-linejoin="round"/>
<path d="M11.5174 11.277L9.57393 9.15685C9.19128 8.73938 8.53313 8.73938 8.15047 9.15685L6.20703 11.277" stroke="#6A57A2" stroke-linecap="round"/>
</svg>
