<svg width="20" height="20" viewBox="0 0 20 20" fill="none" xmlns="http://www.w3.org/2000/svg">
<path d="M18.9005 9.0423C19.1374 9.3048 19.2685 9.64584 19.2685 9.99944C19.2685 10.353 19.1374 10.6941 18.9005 10.9566C17.4005 12.5709 13.9862 15.7137 10.0005 15.7137C6.01476 15.7137 2.60048 12.5709 1.10048 10.9566C0.863563 10.6941 0.732422 10.353 0.732422 9.99944C0.732422 9.64584 0.863563 9.3048 1.10048 9.0423C2.60048 7.42801 6.01476 4.28516 10.0005 4.28516C13.9862 4.28516 17.4005 7.42801 18.9005 9.0423Z" stroke="black" stroke-linecap="round" stroke-linejoin="round"/>
<path d="M10.0007 12.8549C11.5787 12.8549 12.8578 11.5757 12.8578 9.99777C12.8578 8.41981 11.5787 7.14062 10.0007 7.14062C8.42274 7.14062 7.14355 8.41981 7.14355 9.99777C7.14355 11.5757 8.42274 12.8549 10.0007 12.8549Z" stroke="black" stroke-linecap="round" stroke-linejoin="round"/>
</svg>
