<svg width="16" height="16" viewBox="0 0 16 16" fill="none" xmlns="http://www.w3.org/2000/svg">
<g clip-path="url(#clip0_8925_9972)">
<path d="M3.125 3.375C2.22875 3.375 1.5 2.64625 1.5 1.75C1.5 0.85375 2.22875 0.125 3.125 0.125C4.02125 0.125 4.75 0.85375 4.75 1.75C4.75 2.64625 4.02125 3.375 3.125 3.375ZM3.125 0.875C2.6425 0.875 2.25 1.2675 2.25 1.75C2.25 2.2325 2.6425 2.625 3.125 2.625C3.6075 2.625 4 2.2325 4 1.75C4 1.2675 3.6075 0.875 3.125 0.875ZM13.25 9.625C12.5612 9.625 12 9.06375 12 8.375C12 7.68625 12.5612 7.125 13.25 7.125C13.9388 7.125 14.5 7.68625 14.5 8.375C14.5 9.06375 13.9388 9.625 13.25 9.625ZM13.25 7.875C12.9738 7.875 12.75 8.09875 12.75 8.375C12.75 8.65125 12.9738 8.875 13.25 8.875C13.5262 8.875 13.75 8.65125 13.75 8.375C13.75 8.09875 13.5262 7.875 13.25 7.875ZM8 3.375C7.10375 3.375 6.375 2.64625 6.375 1.75C6.375 0.85375 7.10375 0.125 8 0.125C8.89625 0.125 9.625 0.85375 9.625 1.75C9.625 2.64625 8.89625 3.375 8 3.375ZM8 0.875C7.5175 0.875 7.125 1.2675 7.125 1.75C7.125 2.2325 7.5175 2.625 8 2.625C8.4825 2.625 8.875 2.2325 8.875 1.75C8.875 1.2675 8.4825 0.875 8 0.875Z" fill="#696969"/>
<path d="M15.7438 13.4325L15.5238 12.2238C15.3263 11.14 14.4588 10.3213 13.365 10.1888C12.0263 10.0263 10.9938 8.97626 10.855 7.63501L10.7188 6.33126C10.6497 5.6565 10.3323 5.03148 9.82829 4.57758C9.32426 4.12368 8.66954 3.87328 7.99126 3.87501C7.40876 3.87501 6.85251 4.05501 6.38251 4.39626C6.30205 4.45468 6.24804 4.54263 6.23234 4.64082C6.21664 4.739 6.24053 4.83941 6.29876 4.92001C6.35718 5.00047 6.44513 5.05447 6.54332 5.07017C6.6415 5.08587 6.74191 5.06199 6.82251 5.00376C7.162 4.75662 7.57134 4.62397 7.99126 4.62501C9.01501 4.62501 9.86626 5.39251 9.97251 6.41001L10.1088 7.71376C10.2213 8.79126 10.7913 9.71751 11.625 10.3025V12.25C11.625 12.7038 11.8125 13.1138 12.1138 13.4088L12.2513 15.5225C12.2638 15.7213 12.4288 15.8738 12.625 15.8738C12.6325 15.8738 12.6413 15.8738 12.6488 15.8725C12.855 15.86 13.0125 15.6813 13 15.475L12.8975 13.8338C13.0113 13.8588 13.13 13.8738 13.2513 13.8738H13.6025L13.5025 15.475C13.4995 15.5242 13.5061 15.5735 13.5221 15.62C13.5381 15.6666 13.5632 15.7096 13.5958 15.7465C13.6284 15.7834 13.668 15.8136 13.7122 15.8352C13.7565 15.8568 13.8046 15.8695 13.8538 15.8725C13.8613 15.8725 13.87 15.8738 13.8775 15.8738C14.0738 15.8738 14.2388 15.7213 14.2513 15.5225L14.3763 13.5225C14.3825 13.4188 14.3463 13.3175 14.275 13.2425C14.2038 13.1675 14.1038 13.125 14 13.125H13.25C12.7675 13.125 12.375 12.7325 12.375 12.25V10.7075C12.6588 10.8188 12.96 10.8963 13.275 10.9338C14.0413 11.0263 14.6488 11.5988 14.7863 12.3575L15.0063 13.5663C15.0151 13.6147 15.0334 13.6609 15.0601 13.7023C15.0868 13.7436 15.1214 13.7793 15.1619 13.8073C15.2024 13.8353 15.2481 13.855 15.2962 13.8653C15.3444 13.8757 15.3941 13.8764 15.4425 13.8675C15.6463 13.8325 15.7813 13.6363 15.7438 13.4325Z" fill="#696969"/>
<path d="M9.625 9.37501C9.4175 9.37501 9.25 9.54251 9.25 9.75001V11.875H6.75C6.75 11.6675 6.5825 11.5 6.375 11.5C6.1675 11.5 6 11.6675 6 11.875C6 12.2888 6.33625 12.625 6.75 12.625H6.7775L7.00125 15.5288C7.00846 15.6229 7.05097 15.7109 7.12026 15.7751C7.18956 15.8393 7.28054 15.875 7.375 15.875C7.385 15.875 7.39375 15.875 7.40375 15.8738C7.50286 15.8661 7.59487 15.8194 7.65956 15.7439C7.72426 15.6684 7.75634 15.5704 7.74875 15.4713L7.53 12.625H8.47L8.25125 15.4713C8.24366 15.5704 8.27574 15.6684 8.34044 15.7439C8.40513 15.8194 8.49714 15.8661 8.59625 15.8738C8.60625 15.875 8.61625 15.875 8.625 15.875C8.81875 15.875 8.98375 15.725 8.99875 15.5288L9.2225 12.625H9.25C9.66375 12.625 10 12.2888 10 11.875V9.75001C10 9.54251 9.8325 9.37501 9.625 9.37501ZM5.96875 6.33251C5.89994 5.65753 5.5827 5.03223 5.07864 4.57808C4.57459 4.12392 3.91972 3.87334 3.24125 3.87501C1.73 3.87501 0.5 5.10501 0.5 6.61751V10.25C0.5 10.7388 0.81375 11.1563 1.25 11.3113V14.75C1.25 15.37 1.755 15.875 2.375 15.875C2.66375 15.875 2.92625 15.765 3.125 15.5863C3.33057 15.7721 3.59785 15.875 3.875 15.875C4.495 15.875 5 15.37 5 14.75V11.5C5 11.2925 4.8325 11.125 4.625 11.125C4.4175 11.125 4.25 11.2925 4.25 11.5V14.75C4.25 14.9563 4.08125 15.125 3.875 15.125C3.66875 15.125 3.5 14.9563 3.5 14.75V10.25C3.5 10.0425 3.3325 9.87501 3.125 9.87501C2.9175 9.87501 2.75 10.0425 2.75 10.25V14.75C2.75 14.9563 2.58125 15.125 2.375 15.125C2.16875 15.125 2 14.9563 2 14.75V11C2 10.7925 1.8325 10.625 1.625 10.625C1.41875 10.625 1.25 10.4563 1.25 10.25V6.61751C1.25 5.51876 2.14375 4.62501 3.24125 4.62501C4.25875 4.62501 5.10625 5.38376 5.22 6.39251V10.25C5.22 10.4575 5.3875 10.625 5.595 10.625C5.8025 10.625 5.97 10.4575 5.97 10.25V6.37126C5.97125 6.35876 5.97 6.34626 5.96875 6.33251Z" fill="#696969"/>
</g>
<defs>
<clipPath id="clip0_8925_9972">
<rect width="16" height="16" fill="white"/>
</clipPath>
</defs>
</svg>
