<svg width="16" height="15" viewBox="0 0 16 15" fill="none" xmlns="http://www.w3.org/2000/svg">
<path d="M5.64986 4.95011C6.80969 4.95011 7.74991 4.00988 7.74991 2.85005C7.74991 1.69023 6.80969 0.75 5.64986 0.75C4.49003 0.75 3.5498 1.69023 3.5498 2.85005C3.5498 4.00988 4.49003 4.95011 5.64986 4.95011Z" stroke="#696969" stroke-width="1.5" stroke-linecap="round" stroke-linejoin="round"/>
<path d="M5.0578 13.3501H0.75V11.9414C0.758573 11.2256 0.975058 10.5233 1.37923 9.9002C1.78341 9.27711 2.36209 8.75351 3.06122 8.37832C3.76035 8.00313 4.55711 7.78859 5.3771 7.75474C6.19708 7.72089 7.01353 7.86883 7.75018 8.18474" stroke="#696969" stroke-width="1.5" stroke-linecap="round" stroke-linejoin="round"/>
<path d="M11.9512 7.75V13.3501" stroke="#696969" stroke-width="1.5" stroke-linecap="round" stroke-linejoin="round"/>
<path d="M9.15039 10.5508H14.7505" stroke="#696969" stroke-width="1.5" stroke-linecap="round" stroke-linejoin="round"/>
</svg>
