<svg width="24" height="24" viewBox="0 0 24 24" fill="none" xmlns="http://www.w3.org/2000/svg">
<path d="M3.01399 12.368L4.49897 11.2145V19.7858C4.49897 20.1078 4.63067 20.4166 4.86508 20.6444C5.0995 20.8721 5.41744 21 5.74895 21H9.4989C9.83041 21 10.1483 20.8721 10.3828 20.6444C10.6172 20.4166 10.7489 20.1078 10.7489 19.7858V14.9288H13.2488V19.7858C13.2488 20.1078 13.3805 20.4166 13.6149 20.6444C13.8494 20.8721 14.1673 21 14.4988 21H18.2488C18.5803 21 18.8982 20.8721 19.1326 20.6444C19.367 20.4166 19.4987 20.1078 19.4987 19.7858V11.2145L20.9837 12.368C21.0479 12.4178 21.1216 12.4549 21.2005 12.477C21.2794 12.4992 21.3621 12.5061 21.4437 12.4972C21.5254 12.4884 21.6044 12.464 21.6764 12.4255C21.7483 12.3869 21.8118 12.335 21.8631 12.2727C21.9144 12.2103 21.9525 12.1388 21.9754 12.0621C21.9982 11.9854 22.0053 11.9051 21.9961 11.8258C21.987 11.7465 21.9619 11.6697 21.9223 11.5998C21.8826 11.5299 21.8291 11.4683 21.765 11.4184L12.3901 4.13302C12.2792 4.04691 12.1415 4 11.9995 4C11.8575 4 11.7198 4.04691 11.6089 4.13302L8.24891 6.74363V5.2149C8.24891 4.89287 8.11722 4.58402 7.8828 4.35631C7.64839 4.12859 7.33045 4.00066 6.99893 4.00066C6.66742 4.00066 6.34948 4.12859 6.11506 4.35631C5.88065 4.58402 5.74895 4.89287 5.74895 5.2149V8.68641L2.23401 11.4184C1.96526 11.6285 1.92151 12.0098 2.13651 12.2721C2.18759 12.3344 2.25082 12.3863 2.3226 12.4249C2.39437 12.4635 2.47326 12.4879 2.55477 12.4968C2.63628 12.5057 2.71879 12.4989 2.79759 12.4768C2.87639 12.4547 2.94993 12.4177 3.01399 12.368ZM11.9989 5.3849L18.2488 10.2418V19.7858H14.4988V13.7146H9.4989V19.7858H5.74895V10.2431L11.9989 5.3849Z" fill="#E78A5C"/>
</svg>
