<svg width="262" height="78" viewBox="0 0 262 78" fill="none" xmlns="http://www.w3.org/2000/svg">
<g clip-path="url(#clip0_8_95)">
<path d="M77.8 3.072C82.536 3.072 86.6747 4.01066 90.216 5.888C93.7573 7.76533 96.488 10.4107 98.408 13.824C100.371 17.1947 101.352 21.0987 101.352 25.536C101.352 29.9307 100.371 33.8347 98.408 37.248C96.488 40.6613 93.736 43.3067 90.152 45.184C86.6107 47.0613 82.4933 48 77.8 48H60.968V3.072H77.8ZM77.096 38.528C81.2347 38.528 84.456 37.3973 86.76 35.136C89.064 32.8747 90.216 29.6747 90.216 25.536C90.216 21.3973 89.064 18.176 86.76 15.872C84.456 13.568 81.2347 12.416 77.096 12.416H71.912V38.528H77.096ZM156.428 3.072V48H145.484V21.056L135.436 48H126.604L116.492 20.992V48H105.548V3.072H118.476L131.084 34.176L143.564 3.072H156.428ZM178.634 48.448C175.349 48.448 172.405 47.9147 169.802 46.848C167.199 45.7813 165.109 44.2027 163.53 42.112C161.994 40.0213 161.183 37.504 161.098 34.56H172.746C172.917 36.224 173.493 37.504 174.474 38.4C175.455 39.2533 176.735 39.68 178.314 39.68C179.935 39.68 181.215 39.3173 182.154 38.592C183.093 37.824 183.562 36.7787 183.562 35.456C183.562 34.3467 183.178 33.4293 182.41 32.704C181.685 31.9787 180.767 31.3813 179.658 30.912C178.591 30.4427 177.055 29.9093 175.05 29.312C172.149 28.416 169.781 27.52 167.946 26.624C166.111 25.728 164.533 24.4053 163.21 22.656C161.887 20.9067 161.226 18.624 161.226 15.808C161.226 11.6267 162.741 8.36267 165.77 6.016C168.799 3.62667 172.746 2.432 177.61 2.432C182.559 2.432 186.549 3.62667 189.578 6.016C192.607 8.36267 194.229 11.648 194.442 15.872H182.602C182.517 14.4213 181.983 13.2907 181.002 12.48C180.021 11.6267 178.762 11.2 177.226 11.2C175.903 11.2 174.837 11.5627 174.026 12.288C173.215 12.9707 172.81 13.9733 172.81 15.296C172.81 16.7467 173.493 17.8773 174.858 18.688C176.223 19.4987 178.357 20.3733 181.258 21.312C184.159 22.2933 186.506 23.232 188.298 24.128C190.133 25.024 191.711 26.3253 193.034 28.032C194.357 29.7387 195.018 31.936 195.018 34.624C195.018 37.184 194.357 39.5093 193.034 41.6C191.754 43.6907 189.877 45.3547 187.402 46.592C184.927 47.8293 182.005 48.448 178.634 48.448Z" fill="url(#paint0_linear_8_95)"/>
<path d="M16.872 59.432C16.872 60.328 16.656 61.168 16.224 61.952C15.808 62.736 15.144 63.368 14.232 63.848C13.336 64.328 12.2 64.568 10.824 64.568H8.016V71H4.656V54.248H10.824C12.12 54.248 13.224 54.472 14.136 54.92C15.048 55.368 15.728 55.984 16.176 56.768C16.64 57.552 16.872 58.44 16.872 59.432ZM10.68 61.856C11.608 61.856 12.296 61.648 12.744 61.232C13.192 60.8 13.416 60.2 13.416 59.432C13.416 57.8 12.504 56.984 10.68 56.984H8.016V61.856H10.68ZM24.4416 71.216C23.1616 71.216 22.0096 70.936 20.9856 70.376C19.9616 69.8 19.1536 68.992 18.5616 67.952C17.9856 66.912 17.6976 65.712 17.6976 64.352C17.6976 62.992 17.9936 61.792 18.5856 60.752C19.1936 59.712 20.0176 58.912 21.0576 58.352C22.0976 57.776 23.2576 57.488 24.5376 57.488C25.8176 57.488 26.9776 57.776 28.0176 58.352C29.0576 58.912 29.8736 59.712 30.4656 60.752C31.0736 61.792 31.3776 62.992 31.3776 64.352C31.3776 65.712 31.0656 66.912 30.4416 67.952C29.8336 68.992 29.0016 69.8 27.9456 70.376C26.9056 70.936 25.7376 71.216 24.4416 71.216ZM24.4416 68.288C25.0496 68.288 25.6176 68.144 26.1456 67.856C26.6896 67.552 27.1216 67.104 27.4416 66.512C27.7616 65.92 27.9216 65.2 27.9216 64.352C27.9216 63.088 27.5856 62.12 26.9136 61.448C26.2576 60.76 25.4496 60.416 24.4896 60.416C23.5296 60.416 22.7216 60.76 22.0656 61.448C21.4256 62.12 21.1056 63.088 21.1056 64.352C21.1056 65.616 21.4176 66.592 22.0416 67.28C22.6816 67.952 23.4816 68.288 24.4416 68.288ZM51.5542 57.704L47.6662 71H44.0423L41.6182 61.712L39.1943 71H35.5462L31.6342 57.704H35.0422L37.3942 67.832L39.9382 57.704H43.4903L45.9862 67.808L48.3382 57.704H51.5542ZM65.0123 64.064C65.0123 64.544 64.9803 64.976 64.9163 65.36H55.1963C55.2763 66.32 55.6123 67.072 56.2043 67.616C56.7963 68.16 57.5243 68.432 58.3883 68.432C59.6363 68.432 60.5243 67.896 61.0523 66.824H64.6763C64.2923 68.104 63.5563 69.16 62.4683 69.992C61.3803 70.808 60.0443 71.216 58.4603 71.216C57.1803 71.216 56.0283 70.936 55.0043 70.376C53.9963 69.8 53.2043 68.992 52.6283 67.952C52.0683 66.912 51.7883 65.712 51.7883 64.352C51.7883 62.976 52.0683 61.768 52.6283 60.728C53.1883 59.688 53.9723 58.888 54.9803 58.328C55.9883 57.768 57.1483 57.488 58.4603 57.488C59.7243 57.488 60.8523 57.76 61.8443 58.304C62.8523 58.848 63.6283 59.624 64.1723 60.632C64.7323 61.624 65.0123 62.768 65.0123 64.064ZM61.5323 63.104C61.5163 62.24 61.2043 61.552 60.5963 61.04C59.9883 60.512 59.2443 60.248 58.3643 60.248C57.5323 60.248 56.8283 60.504 56.2523 61.016C55.6923 61.512 55.3483 62.208 55.2203 63.104H61.5323ZM70.1047 59.768C70.5367 59.064 71.0967 58.512 71.7847 58.112C72.4887 57.712 73.2887 57.512 74.1847 57.512V61.04H73.2967C72.2407 61.04 71.4407 61.288 70.8967 61.784C70.3687 62.28 70.1047 63.144 70.1047 64.376V71H66.7447V57.704H70.1047V59.768ZM88.0879 64.064C88.0879 64.544 88.0559 64.976 87.9919 65.36H78.2719C78.3519 66.32 78.6879 67.072 79.2799 67.616C79.8719 68.16 80.5999 68.432 81.4639 68.432C82.7119 68.432 83.5999 67.896 84.1279 66.824H87.7519C87.3679 68.104 86.6319 69.16 85.5439 69.992C84.4559 70.808 83.1199 71.216 81.5359 71.216C80.2559 71.216 79.1039 70.936 78.0799 70.376C77.0719 69.8 76.2799 68.992 75.7039 67.952C75.1439 66.912 74.8639 65.712 74.8639 64.352C74.8639 62.976 75.1439 61.768 75.7039 60.728C76.2639 59.688 77.0479 58.888 78.0559 58.328C79.0639 57.768 80.2239 57.488 81.5359 57.488C82.7999 57.488 83.9279 57.76 84.9199 58.304C85.9279 58.848 86.7039 59.624 87.2479 60.632C87.8079 61.624 88.0879 62.768 88.0879 64.064ZM84.6079 63.104C84.5919 62.24 84.2799 61.552 83.6719 61.04C83.0639 60.512 82.3199 60.248 81.4399 60.248C80.6079 60.248 79.9039 60.504 79.3279 61.016C78.7679 61.512 78.4239 62.208 78.2959 63.104H84.6079ZM88.9564 64.304C88.9564 62.96 89.2204 61.768 89.7484 60.728C90.2924 59.688 91.0284 58.888 91.9564 58.328C92.8844 57.768 93.9164 57.488 95.0524 57.488C95.9164 57.488 96.7404 57.68 97.5244 58.064C98.3084 58.432 98.9324 58.928 99.3964 59.552V53.24H102.804V71H99.3964V69.032C98.9804 69.688 98.3964 70.216 97.6444 70.616C96.8924 71.016 96.0204 71.216 95.0284 71.216C93.9084 71.216 92.8844 70.928 91.9564 70.352C91.0284 69.776 90.2924 68.968 89.7484 67.928C89.2204 66.872 88.9564 65.664 88.9564 64.304ZM99.4204 64.352C99.4204 63.536 99.2604 62.84 98.9404 62.264C98.6204 61.672 98.1884 61.224 97.6444 60.92C97.1004 60.6 96.5164 60.44 95.8924 60.44C95.2684 60.44 94.6924 60.592 94.1644 60.896C93.6364 61.2 93.2044 61.648 92.8684 62.24C92.5484 62.816 92.3884 63.504 92.3884 64.304C92.3884 65.104 92.5484 65.808 92.8684 66.416C93.2044 67.008 93.6364 67.464 94.1644 67.784C94.7084 68.104 95.2844 68.264 95.8924 68.264C96.5164 68.264 97.1004 68.112 97.6444 67.808C98.1884 67.488 98.6204 67.04 98.9404 66.464C99.2604 65.872 99.4204 65.168 99.4204 64.352ZM113.725 59.648C114.157 59.008 114.749 58.488 115.501 58.088C116.269 57.688 117.141 57.488 118.117 57.488C119.253 57.488 120.277 57.768 121.189 58.328C122.117 58.888 122.845 59.688 123.373 60.728C123.917 61.752 124.189 62.944 124.189 64.304C124.189 65.664 123.917 66.872 123.373 67.928C122.845 68.968 122.117 69.776 121.189 70.352C120.277 70.928 119.253 71.216 118.117 71.216C117.125 71.216 116.253 71.024 115.501 70.64C114.765 70.24 114.173 69.728 113.725 69.104V71H110.365V53.24H113.725V59.648ZM120.757 64.304C120.757 63.504 120.589 62.816 120.253 62.24C119.933 61.648 119.501 61.2 118.957 60.896C118.429 60.592 117.853 60.44 117.229 60.44C116.621 60.44 116.045 60.6 115.501 60.92C114.973 61.224 114.541 61.672 114.205 62.264C113.885 62.856 113.725 63.552 113.725 64.352C113.725 65.152 113.885 65.848 114.205 66.44C114.541 67.032 114.973 67.488 115.501 67.808C116.045 68.112 116.621 68.264 117.229 68.264C117.853 68.264 118.429 68.104 118.957 67.784C119.501 67.464 119.933 67.008 120.253 66.416C120.589 65.824 120.757 65.12 120.757 64.304ZM138.63 57.704L130.398 77.288H126.822L129.702 70.664L124.374 57.704H128.142L131.574 66.992L135.054 57.704H138.63ZM156.12 54.248V56.96H151.656V71H148.296V56.96H143.832V54.248H156.12ZM159.556 56.12C158.964 56.12 158.468 55.936 158.068 55.568C157.684 55.184 157.492 54.712 157.492 54.152C157.492 53.592 157.684 53.128 158.068 52.76C158.468 52.376 158.964 52.184 159.556 52.184C160.148 52.184 160.636 52.376 161.02 52.76C161.42 53.128 161.62 53.592 161.62 54.152C161.62 54.712 161.42 55.184 161.02 55.568C160.636 55.936 160.148 56.12 159.556 56.12ZM161.212 57.704V71H157.852V57.704H161.212ZM166.692 59.768C167.124 59.064 167.684 58.512 168.372 58.112C169.076 57.712 169.876 57.512 170.772 57.512V61.04H169.884C168.828 61.04 168.028 61.288 167.484 61.784C166.956 62.28 166.692 63.144 166.692 64.376V71H163.332V57.704H166.692V59.768ZM175.747 60.464V66.896C175.747 67.344 175.851 67.672 176.059 67.88C176.283 68.072 176.651 68.168 177.163 68.168H178.723V71H176.611C173.779 71 172.363 69.624 172.363 66.872V60.464H170.779V57.704H172.363V54.416H175.747V57.704H178.723V60.464H175.747ZM187.907 57.512C188.915 57.512 189.811 57.736 190.595 58.184C191.379 58.616 191.987 59.264 192.419 60.128C192.867 60.976 193.091 62 193.091 63.2V71H189.731V63.656C189.731 62.6 189.467 61.792 188.939 61.232C188.411 60.656 187.691 60.368 186.779 60.368C185.851 60.368 185.115 60.656 184.571 61.232C184.043 61.792 183.779 62.6 183.779 63.656V71H180.419V53.24H183.779V59.36C184.211 58.784 184.787 58.336 185.507 58.016C186.227 57.68 187.027 57.512 187.907 57.512ZM207.927 64.064C207.927 64.544 207.895 64.976 207.831 65.36H198.111C198.191 66.32 198.527 67.072 199.119 67.616C199.711 68.16 200.439 68.432 201.303 68.432C202.551 68.432 203.439 67.896 203.967 66.824H207.591C207.207 68.104 206.471 69.16 205.383 69.992C204.295 70.808 202.959 71.216 201.375 71.216C200.095 71.216 198.943 70.936 197.919 70.376C196.911 69.8 196.119 68.992 195.543 67.952C194.983 66.912 194.703 65.712 194.703 64.352C194.703 62.976 194.983 61.768 195.543 60.728C196.103 59.688 196.887 58.888 197.895 58.328C198.903 57.768 200.063 57.488 201.375 57.488C202.639 57.488 203.767 57.76 204.759 58.304C205.767 58.848 206.543 59.624 207.087 60.632C207.647 61.624 207.927 62.768 207.927 64.064ZM204.447 63.104C204.431 62.24 204.119 61.552 203.511 61.04C202.903 60.512 202.159 60.248 201.279 60.248C200.447 60.248 199.743 60.504 199.167 61.016C198.607 61.512 198.263 62.208 198.135 63.104H204.447ZM209.035 64.304C209.035 62.96 209.299 61.768 209.827 60.728C210.371 59.688 211.099 58.888 212.011 58.328C212.939 57.768 213.971 57.488 215.107 57.488C216.099 57.488 216.963 57.688 217.699 58.088C218.451 58.488 219.051 58.992 219.499 59.6V57.704H222.883V71H219.499V69.056C219.067 69.68 218.467 70.2 217.699 70.616C216.947 71.016 216.075 71.216 215.083 71.216C213.963 71.216 212.939 70.928 212.011 70.352C211.099 69.776 210.371 68.968 209.827 67.928C209.299 66.872 209.035 65.664 209.035 64.304ZM219.499 64.352C219.499 63.536 219.339 62.84 219.019 62.264C218.699 61.672 218.267 61.224 217.723 60.92C217.179 60.6 216.595 60.44 215.971 60.44C215.347 60.44 214.771 60.592 214.243 60.896C213.715 61.2 213.283 61.648 212.947 62.24C212.627 62.816 212.467 63.504 212.467 64.304C212.467 65.104 212.627 65.808 212.947 66.416C213.283 67.008 213.715 67.464 214.243 67.784C214.787 68.104 215.363 68.264 215.971 68.264C216.595 68.264 217.179 68.112 217.723 67.808C218.267 67.488 218.699 67.04 219.019 66.464C219.339 65.872 219.499 65.168 219.499 64.352ZM230.533 71.216C229.445 71.216 228.469 71.024 227.605 70.64C226.741 70.24 226.053 69.704 225.541 69.032C225.045 68.36 224.773 67.616 224.725 66.8H228.109C228.173 67.312 228.421 67.736 228.853 68.072C229.301 68.408 229.853 68.576 230.509 68.576C231.149 68.576 231.645 68.448 231.997 68.192C232.365 67.936 232.549 67.608 232.549 67.208C232.549 66.776 232.325 66.456 231.877 66.248C231.445 66.024 230.749 65.784 229.789 65.528C228.797 65.288 227.981 65.04 227.341 64.784C226.717 64.528 226.173 64.136 225.709 63.608C225.261 63.08 225.037 62.368 225.037 61.472C225.037 60.736 225.245 60.064 225.661 59.456C226.093 58.848 226.701 58.368 227.485 58.016C228.285 57.664 229.221 57.488 230.293 57.488C231.877 57.488 233.141 57.888 234.085 58.688C235.029 59.472 235.549 60.536 235.645 61.88H232.429C232.381 61.352 232.157 60.936 231.757 60.632C231.373 60.312 230.853 60.152 230.197 60.152C229.589 60.152 229.117 60.264 228.781 60.488C228.461 60.712 228.301 61.024 228.301 61.424C228.301 61.872 228.525 62.216 228.973 62.456C229.421 62.68 230.117 62.912 231.061 63.152C232.021 63.392 232.813 63.64 233.437 63.896C234.061 64.152 234.597 64.552 235.045 65.096C235.509 65.624 235.749 66.328 235.765 67.208C235.765 67.976 235.549 68.664 235.117 69.272C234.701 69.88 234.093 70.36 233.293 70.712C232.509 71.048 231.589 71.216 230.533 71.216ZM250.523 57.704L242.291 77.288H238.715L241.595 70.664L236.267 57.704H240.035L243.467 66.992L246.947 57.704H250.523Z" fill="black"/>
</g>
<defs>
<linearGradient id="paint0_linear_8_95" x1="57" y1="3" x2="57" y2="48" gradientUnits="userSpaceOnUse">
<stop stop-color="#EB91A0"/>
<stop offset="1" stop-color="#CC484A"/>
</linearGradient>
<clipPath id="clip0_8_95">
<rect width="262" height="78" fill="white"/>
</clipPath>
</defs>
</svg>
