<svg width="11" height="8" viewBox="0 0 11 8" fill="none" xmlns="http://www.w3.org/2000/svg">
<path d="M1.66861 0C1.32501 0 1.02731 0.277495 1.02731 0.626444V3.14943C1.02731 3.23171 1.04521 3.30947 1.07502 3.38131C0.887268 3.51171 0.733059 3.65329 0.604597 3.80246C0.266905 4.19459 0.134119 4.71733 0.0649631 5.14177C-0.00419227 5.56621 5.06851e-05 5.9086 5.06851e-05 5.9086V6.43024C5.06851e-05 6.55482 0.0206955 6.70151 0.143562 6.81033C0.266428 6.91915 0.394753 6.91368 0.46265 6.91357C0.463171 6.91357 0.463692 6.91357 0.464214 6.91357C0.657814 6.91185 0.832825 6.83823 0.925249 6.7157C1.01767 6.59316 1.00971 6.4365 1.00971 6.4365L1.01089 6.45996V5.85541C1.01089 5.53023 1.08061 5.47348 1.07893 5.47415C1.07997 5.47416 1.08101 5.47416 1.08206 5.47415H5.42259H9.76468C9.76572 5.47416 9.76677 5.47416 9.76781 5.47415C9.76613 5.47348 9.83585 5.53023 9.83585 5.85541V6.45996L9.83741 6.4365C9.83741 6.4365 9.82906 6.59317 9.92149 6.7157C10.0139 6.83823 10.1889 6.91185 10.3825 6.91357C10.383 6.91357 10.3836 6.91357 10.3841 6.91357C10.452 6.91368 10.5803 6.91915 10.7032 6.81033C10.826 6.70151 10.8467 6.55482 10.8467 6.43024V5.9086V5.90429C10.8467 5.90039 10.8505 5.56377 10.7818 5.14177C10.7126 4.71733 10.5798 4.19459 10.2421 3.80246C10.1136 3.65325 9.95954 3.51174 9.77172 3.38131C9.80152 3.30947 9.81943 3.23171 9.81943 3.14943V0.626444C9.81943 0.277497 9.52173 0 9.17812 0H1.66861ZM1.66861 0.579128H9.17812C9.2245 0.579128 9.2403 0.602377 9.2403 0.626444V3.09077C9.09747 3.03041 8.94112 2.97506 8.76714 2.92614C8.76207 2.92472 8.75621 2.92365 8.75111 2.92223V1.64197C8.75111 1.50017 8.67111 1.37996 8.58101 1.31233C8.4909 1.24469 8.38614 1.21457 8.27678 1.21457H6.28874C6.17938 1.21457 6.07423 1.24469 5.98412 1.31233C5.89401 1.37996 5.81441 1.50017 5.81441 1.64197V2.61057C5.68602 2.6089 5.5589 2.60706 5.42259 2.60706C5.2693 2.60706 5.12553 2.60884 4.98228 2.61097V1.64197C4.98228 1.50017 4.90385 1.37996 4.81374 1.31233C4.72363 1.24469 4.61848 1.21457 4.50912 1.21457H2.52147C2.41211 1.21457 2.30696 1.24469 2.21685 1.31233C2.12674 1.37996 2.04714 1.50017 2.04714 1.64197V2.93631C1.88655 2.98279 1.73993 3.03435 1.60644 3.09077V0.626444C1.60644 0.602379 1.62224 0.579128 1.66861 0.579128ZM2.62627 1.79252H4.40432V2.62583C3.68251 2.65386 3.10246 2.71358 2.62627 2.80179V1.79252ZM6.39354 1.79252H8.17159V2.79202C7.69449 2.70702 7.11152 2.65057 6.39354 2.62426V1.79252ZM5.42259 3.18618C5.66393 3.18618 5.88804 3.19009 6.10299 3.19557C6.1497 3.19674 6.19434 3.19806 6.23986 3.19948C6.26202 3.20018 6.28171 3.20146 6.3036 3.20222C6.4666 3.20786 6.62574 3.2142 6.77362 3.22294C6.79755 3.22434 6.82282 3.22577 6.84636 3.22724C7.00717 3.23744 7.15522 3.24991 7.29879 3.26361C7.32907 3.2665 7.36466 3.26839 7.3942 3.27143C7.39542 3.27156 7.3969 3.2717 7.39811 3.27182C7.49153 3.28146 7.57229 3.2936 7.65855 3.30467C7.74511 3.31583 7.83582 3.32654 7.91546 3.33908C7.98401 3.34982 8.04377 3.36218 8.10746 3.37388C8.19117 3.38935 8.27629 3.40456 8.35186 3.42159C8.46126 3.44606 8.56638 3.47121 8.66039 3.49862C8.66337 3.4995 8.66602 3.50048 8.66899 3.50136C8.76969 3.53098 8.86158 3.5626 8.94624 3.59521C8.95179 3.59734 8.95757 3.59933 8.96305 3.60147C9.05021 3.63562 9.12967 3.67133 9.20158 3.70822C9.20887 3.71192 9.2163 3.71531 9.22387 3.71839C9.48213 3.85359 9.65382 4.0073 9.80339 4.18099C9.96864 4.37287 10.0481 4.70107 10.1209 5.00412C9.93293 4.85969 9.6896 4.90519 9.6896 4.90519L9.76468 4.89463H5.42259H1.08206L1.15753 4.90519C1.15753 4.90519 0.913803 4.85969 0.725819 5.00412C0.798603 4.70107 0.878098 4.37287 1.04334 4.18099C1.19301 4.00719 1.36472 3.85326 1.62325 3.718C1.63068 3.71504 1.63799 3.71178 1.64515 3.70822C1.71706 3.67133 1.79656 3.63562 1.88368 3.60147C1.88917 3.59933 1.89495 3.59734 1.9005 3.59521C1.98415 3.56297 2.07532 3.53185 2.17462 3.50253C2.18038 3.50082 2.18562 3.49915 2.19143 3.49745C2.27045 3.47449 2.36013 3.45344 2.44991 3.43254C2.53847 3.41177 2.63644 3.39283 2.73654 3.37427C2.78938 3.36454 2.8399 3.35441 2.89608 3.34534C2.9922 3.32971 3.09897 3.31629 3.2054 3.30271C3.27418 3.294 3.33858 3.28432 3.41186 3.27651C3.51792 3.26513 3.63699 3.25655 3.75285 3.24719C3.83499 3.24059 3.91112 3.23279 3.99842 3.22724C4.01538 3.22618 4.03366 3.22514 4.05082 3.22411C4.22229 3.2137 4.40569 3.20598 4.59749 3.19987C4.64565 3.19835 4.69307 3.19681 4.74257 3.19557C4.95748 3.19009 5.18125 3.18618 5.42259 3.18618ZM10.1843 5.16719C10.1952 5.18908 10.2057 5.21065 10.2097 5.23484C10.2118 5.24803 10.2093 5.24531 10.2112 5.2583C10.1974 5.23525 10.1914 5.20015 10.1843 5.16719ZM0.661689 5.17031C0.654855 5.20233 0.648882 5.23601 0.635489 5.2583C0.63748 5.24531 0.634904 5.24803 0.637053 5.23484C0.640812 5.21176 0.65129 5.19119 0.661689 5.17031ZM1.45902 5.63096C1.42099 5.63092 1.38332 5.63838 1.34818 5.6529C1.31303 5.66742 1.28109 5.68873 1.25418 5.7156C1.22727 5.74248 1.20592 5.77439 1.19135 5.80952C1.17678 5.84464 1.16927 5.8823 1.16926 5.92033V7.62174C1.16927 7.65977 1.17678 7.69742 1.19135 7.73255C1.20592 7.76768 1.22727 7.79959 1.25418 7.82646C1.28109 7.85333 1.31303 7.87464 1.34818 7.88916C1.38332 7.90369 1.42099 7.91114 1.45902 7.91111H3.06971C3.10773 7.91114 3.1454 7.90369 3.18055 7.88916C3.21569 7.87464 3.24763 7.85333 3.27454 7.82646C3.30145 7.79959 3.3228 7.76768 3.33737 7.73255C3.35195 7.69742 3.35945 7.65977 3.35947 7.62174V7.34957H7.48727V7.62174C7.48728 7.65977 7.49479 7.69742 7.50936 7.73255C7.52393 7.76768 7.54528 7.79959 7.57219 7.82646C7.5991 7.85333 7.63104 7.87464 7.66619 7.88916C7.70134 7.90369 7.739 7.91114 7.77703 7.91111H9.38811C9.46485 7.91108 9.53843 7.88058 9.5927 7.82632C9.64696 7.77206 9.67745 7.69847 9.67748 7.62174V5.92033C9.67745 5.84359 9.64696 5.77 9.5927 5.71574C9.53843 5.66148 9.46485 5.63098 9.38811 5.63096H1.45902ZM1.74839 6.21009H9.09835V7.33198H8.06679V7.06138C8.06683 7.02332 8.05936 6.98562 8.04481 6.95045C8.03026 6.91527 8.00892 6.88332 7.98201 6.8564C7.95509 6.82949 7.92313 6.80815 7.88796 6.7936C7.85279 6.77905 7.81509 6.77158 7.77703 6.77162H3.06971C2.9931 6.77196 2.91976 6.80264 2.86574 6.85695C2.81172 6.91127 2.78143 6.98478 2.78151 7.06138V7.33198H1.74839V6.21009Z" fill="white"/>
</svg>
