<svg width="20" height="20" viewBox="0 0 20 20" fill="none" xmlns="http://www.w3.org/2000/svg">
<path d="M10.0071 2C11.4087 2 12.7529 2.55678 13.744 3.54786C14.7351 4.53894 15.2919 5.88312 15.2919 7.28472C15.2919 13.1607 17.4353 14.3187 18.0143 14.3187H2C2.5913 14.3187 4.72243 13.1484 4.72243 7.28472C4.72243 5.88312 5.27921 4.53894 6.27029 3.54786C7.26137 2.55678 8.60556 2 10.0071 2V2Z" stroke="black" stroke-linecap="round" stroke-linejoin="round"/>
<path d="M8.15967 16.5703C8.26615 16.9793 8.50533 17.3415 8.83973 17.5999C9.17412 17.8584 9.58482 17.9986 10.0075 17.9986C10.4301 17.9986 10.8408 17.8584 11.1752 17.5999C11.5096 17.3415 11.7488 16.9793 11.8553 16.5703" stroke="black" stroke-linecap="round" stroke-linejoin="round"/>
<circle cx="15" cy="3" r="3" fill="#FFAE00"/>
</svg>
