<svg width="24" height="24" viewBox="0 0 24 24" fill="none" xmlns="http://www.w3.org/2000/svg">
<path d="M20.3571 11.3571H19.7143V4.89C19.7143 4.38874 19.5152 3.90801 19.1607 3.55357C18.8063 3.19912 18.3255 3 17.8243 3H6.17571C5.67446 3 5.19373 3.19912 4.83928 3.55357C4.48484 3.90801 4.28571 4.38874 4.28571 4.89V11.3571H3.64286C3.47236 11.3571 3.30885 11.4249 3.18829 11.5454C3.06773 11.666 3 11.8295 3 12V17.7857C3 17.9562 3.06773 18.1197 3.18829 18.2403C3.30885 18.3608 3.47236 18.4286 3.64286 18.4286H4.28571V20.3571C4.28571 20.5276 4.35344 20.6912 4.474 20.8117C4.59456 20.9323 4.75808 21 4.92857 21H7.5C7.6705 21 7.83401 20.9323 7.95457 20.8117C8.07513 20.6912 8.14286 20.5276 8.14286 20.3571V18.4286H15.8571V20.3571C15.8571 20.5276 15.9249 20.6912 16.0454 20.8117C16.166 20.9323 16.3295 21 16.5 21H19.0714C19.2419 21 19.4054 20.9323 19.526 20.8117C19.6466 20.6912 19.7143 20.5276 19.7143 20.3571V18.4286H20.3571C20.5276 18.4286 20.6912 18.3608 20.8117 18.2403C20.9323 18.1197 21 17.9562 21 17.7857V12C21 11.8295 20.9323 11.666 20.8117 11.5454C20.6912 11.4249 20.5276 11.3571 20.3571 11.3571ZM5.57143 4.89C5.57143 4.72973 5.63509 4.57603 5.74842 4.46271C5.86175 4.34938 6.01545 4.28571 6.17571 4.28571H17.8243C17.9036 4.28571 17.9822 4.30134 18.0555 4.33171C18.1288 4.36208 18.1955 4.40659 18.2516 4.46271C18.3077 4.51882 18.3522 4.58543 18.3826 4.65875C18.4129 4.73207 18.4286 4.81064 18.4286 4.89V11.3571H17.4643V8.70857C17.4643 8.53807 17.3966 8.37456 17.276 8.254C17.1554 8.13344 16.9919 8.06571 16.8214 8.06571H7.17857C7.00808 8.06571 6.84456 8.13344 6.724 8.254C6.60344 8.37456 6.53571 8.53807 6.53571 8.70857V11.3571H5.57143V4.89ZM7.82143 11.3571V9.35143H11.3571V11.3571H7.82143ZM12.6429 9.35143H16.1786V11.3571H12.6429V9.35143ZM4.92857 12.6429H19.7143V13.6907H4.28571V12.6429H4.92857ZM6.85714 19.7143H5.57143V18.4286H6.85714V19.7143ZM18.4286 19.7143H17.1429V18.4286H18.4286V19.7143ZM4.28571 17.1429V14.9764H19.7143V17.1429H4.28571Z" fill="#71A9D6"/>
</svg>
