<svg width="14" height="14" viewBox="0 0 14 14" fill="none" xmlns="http://www.w3.org/2000/svg">
<path d="M9.91634 12.25V11.0833C9.91634 10.4645 9.67051 9.871 9.23292 9.43342C8.79534 8.99583 8.20185 8.75 7.58301 8.75H2.91634C2.2975 8.75 1.70401 8.99583 1.26643 9.43342C0.82884 9.871 0.583008 10.4645 0.583008 11.0833V12.25" stroke="black" stroke-linecap="round" stroke-linejoin="round"/>
<path d="M5.25033 6.41667C6.53899 6.41667 7.58366 5.372 7.58366 4.08333C7.58366 2.79467 6.53899 1.75 5.25033 1.75C3.96166 1.75 2.91699 2.79467 2.91699 4.08333C2.91699 5.372 3.96166 6.41667 5.25033 6.41667Z" stroke="black" stroke-linecap="round" stroke-linejoin="round"/>
<path d="M13.417 12.2484V11.0817C13.4166 10.5647 13.2445 10.0625 12.9278 9.6539C12.611 9.2453 12.1676 8.95347 11.667 8.82422" stroke="black" stroke-linecap="round" stroke-linejoin="round"/>
<path d="M9.33301 1.82422C9.83492 1.95273 10.2798 2.24463 10.5975 2.6539C10.9151 3.06317 11.0876 3.56654 11.0876 4.08464C11.0876 4.60273 10.9151 5.1061 10.5975 5.51537C10.2798 5.92464 9.83492 6.21654 9.33301 6.34505" stroke="black" stroke-linecap="round" stroke-linejoin="round"/>
</svg>
